# xmcd CD database file
#
# Track frame offsets:
#	150
#	14412
#	27572
#	39290
#	53300
#	65730
#	75692
#	87922
#	100635
#	114045
#	126810
#	140222
#	153060
#	164895
#	177760
#	189390
#	203715
#	216942
#	231622
#	246167
#	258852
#	271805
#	284432
#	296202
#	309562
#
# Disc length: 4295 seconds
#
# Revision: 0
# Processed by: cddbd v1.5.2PL0 Copyright (c) Steve Scherf et al.
# Submitted via: CDex 1.74
#
DISCID=6710c519
DTITLE=Humphrey Lyttelton - Humphrey Lyttelton
DYEAR=2001
DGENRE=Jazz
TTITLE0=Apex Blues
TTITLE1=Travellin'Blues
TTITLE2=The Onions
TTITLE3=Ace in the Hole
TTITLE4=Bad Penny Blues
TTITLE5=Buona Sera
TTITLE6=Early Call
TTITLE7=P.T.Q Rag
TTITLE8=One Man Went to Blow
TTITLE9=Heat Wave (as thousands cheer)
TTITLE10=The Old Grey Mare
TTITLE11=Fish Seller
TTITLE12=Young Woman Blues
TTITLE13=Fidgety feet
TTITLE14=Out of the Galleon
TTITLE15=Maple Leaf Rag
TTITLE16=Coffee Grinder
TTITLE17=That's My Home
TTITLE18=Four's Company
TTITLE19=Careless Love
TTITLE20=Steppin' on the Blues
TTITLE21=Hoppin' Mad
TTITLE22=March Hare
TTITLE23=The Glory of Love
TTITLE24=Closing Time
EXTD=YEAR: 2001
EXTT0=
EXTT1=
EXTT2=
EXTT3=
EXTT4=
EXTT5=
EXTT6=
EXTT7=
EXTT8=
EXTT9=
EXTT10=
EXTT11=
EXTT12=
EXTT13=
EXTT14=
EXTT15=
EXTT16=
EXTT17=
EXTT18=
EXTT19=
EXTT20=
EXTT21=
EXTT22=
EXTT23=
EXTT24=
PLAYORDER=
